<?xml version="1.0" encoding="UTF-8"?>
<!DOCTYPE svg PUBLIC "-//W3C//DTD SVG 1.1//EN" "http://www.w3.org/Graphics/SVG/1.1/DTD/svg11.dtd">
<!-- Creator: CorelDRAW -->
<svg xmlns="http://www.w3.org/2000/svg" xml:space="preserve" width="5.43708in" height="1.29481in" version="1.1" style="shape-rendering:geometricPrecision; text-rendering:geometricPrecision; image-rendering:optimizeQuality; fill-rule:evenodd; clip-rule:evenodd"
viewBox="0 0 5436.66 1294.71"
 xmlns:xlink="http://www.w3.org/1999/xlink"
 xmlns:xodm="http://www.corel.com/coreldraw/odm/2003">
 <defs>
  <style type="text/css">
   <![CDATA[
    .fil1 {fill:white}
    .fil0 {fill:white;fill-rule:nonzero}
    .fil3 {fill:url(#id0)}
    .fil2 {fill:url(#id1)}
   ]]>
  </style>
  <linearGradient id="id0" gradientUnits="userSpaceOnUse" x1="1189.68" y1="180.23" x2="1215.68" y2="1578.93">
   <stop offset="0" style="stop-opacity:1; stop-color:#7E3FFF"/>
   <stop offset="1" style="stop-opacity:1; stop-color:#45B4FF"/>
  </linearGradient>
  <linearGradient id="id1" gradientUnits="userSpaceOnUse" xlink:href="#id0" x1="721.31" y1="17.23" x2="730.1" y2="1284.27">
  </linearGradient>
 </defs>
 <g id="Layer_x0020_1">
  <metadata id="CorelCorpID_0Corel-Layer"/>
  <g id="_2176164356784">
   <g>
    <path class="fil0" d="M2011.96 1061.73c-73.82,0 -138.6,-17.14 -194.34,-51.41 -55.74,-34.27 -99.05,-81.91 -129.93,-142.93 -30.88,-61.01 -46.33,-132.19 -46.33,-213.54 0,-80.6 15.63,-151.78 46.89,-213.54 31.26,-61.77 75.7,-109.97 133.32,-144.62 57.62,-34.65 125.6,-51.97 203.94,-51.97 88.88,0 163.08,21.28 222.59,63.84 59.5,42.56 97.54,101.87 114.11,177.95l-109.59 0c-10.55,-47.45 -35.4,-85.12 -74.57,-112.99 -39.17,-27.87 -90.01,-41.8 -152.53,-41.8 -58,0 -108.65,13 -151.96,38.98 -43.31,25.99 -76.64,63.08 -99.99,111.29 -23.35,48.21 -35.02,105.83 -35.02,172.87 0,67.04 11.68,124.85 35.02,173.43 23.35,48.59 55.93,85.68 97.73,111.29 41.8,25.61 89.82,38.42 144.06,38.42 84.36,0 148.01,-24.86 190.95,-74.57 42.94,-49.71 67.42,-117.13 73.44,-202.24l-228.23 0 0 -74.57 325.4 0 0 422.57 -87 0 -7.91 -129.93 0 0c-18.83,30.88 -40.49,57.06 -64.97,78.53 -24.48,21.47 -53.29,37.66 -86.43,48.58 -33.14,10.92 -72.69,16.38 -118.64,16.38z"/>
    <path class="fil0" d="M2639.05 1061.73c-45.95,0 -84.36,-8.1 -115.24,-24.29 -30.88,-16.19 -53.86,-37.66 -68.92,-64.4 -15.06,-26.74 -22.6,-55.93 -22.6,-87.56 0,-38.41 9.98,-70.99 29.94,-97.73 19.96,-26.74 48.21,-47.08 84.74,-61.01 36.53,-13.94 79.66,-20.9 129.37,-20.9l150.27 0c0,-35.4 -5.46,-64.97 -16.38,-88.69 -10.92,-23.73 -26.74,-41.61 -47.45,-53.67 -20.71,-12.05 -46.52,-18.08 -77.4,-18.08 -36.16,0 -67.42,9.04 -93.78,27.12 -26.36,18.08 -42.56,44.82 -48.58,80.22l-97.17 0c4.52,-40.67 18.27,-74.76 41.24,-102.25 22.97,-27.49 52.16,-48.58 87.56,-63.27 35.4,-14.69 72.31,-22.03 110.73,-22.03 52.72,0 96.6,9.6 131.63,28.81 35.02,19.21 61.2,45.95 78.53,80.22 17.33,34.27 25.99,74.76 25.99,121.46l0 352.52 -84.74 0 -5.65 -100.56 0 0c-7.53,15.82 -17.13,30.69 -28.81,44.63 -11.68,13.94 -25.23,25.99 -40.67,36.15 -15.44,10.17 -33.33,18.27 -53.67,24.29 -20.34,6.03 -43.31,9.04 -68.92,9.04zm14.69 -80.22c26.36,0 50.28,-5.46 71.75,-16.38 21.47,-10.92 39.73,-25.99 54.8,-45.19 15.07,-19.21 26.55,-40.49 34.46,-63.84 7.91,-23.35 11.86,-47.83 11.86,-73.44l0 -3.39 -142.36 0c-36.91,0 -66.66,4.33 -89.26,12.99 -22.6,8.66 -38.79,20.71 -48.58,36.15 -9.79,15.44 -14.69,32.95 -14.69,52.54 0,20.34 4.71,38.04 14.12,53.1 9.42,15.07 23.35,26.74 41.81,35.03 18.45,8.28 40.49,12.43 66.09,12.43z"/>
    <path class="fil1" d="M2999.49 1048.17l0 -195.01 94.91 0 0 195.01 -94.91 0zm0 -195.01l0 -618.49 94.91 0 0 571.87 -94.91 46.63z"/>
    <path class="fil0" d="M3367.83 1061.73c-45.95,0 -84.36,-8.1 -115.24,-24.29 -30.88,-16.19 -53.86,-37.66 -68.92,-64.4 -15.06,-26.74 -22.6,-55.93 -22.6,-87.56 0,-38.41 9.98,-70.99 29.94,-97.73 19.96,-26.74 48.21,-47.08 84.74,-61.01 36.53,-13.94 79.66,-20.9 129.37,-20.9l150.27 0c0,-35.4 -5.46,-64.97 -16.38,-88.69 -10.92,-23.73 -26.74,-41.61 -47.45,-53.67 -20.71,-12.05 -46.52,-18.08 -77.4,-18.08 -36.16,0 -67.42,9.04 -93.78,27.12 -26.36,18.08 -42.56,44.82 -48.58,80.22l-97.17 0c4.52,-40.67 18.27,-74.76 41.24,-102.25 22.97,-27.49 52.16,-48.58 87.56,-63.27 35.4,-14.69 72.31,-22.03 110.73,-22.03 52.72,0 96.6,9.6 131.63,28.81 35.02,19.21 61.2,45.95 78.53,80.22 17.33,34.27 25.99,74.76 25.99,121.46l0 352.52 -84.74 0 -5.65 -100.56 0 0c-7.53,15.82 -17.13,30.69 -28.81,44.63 -11.68,13.94 -25.23,25.99 -40.67,36.15 -15.44,10.17 -33.33,18.27 -53.67,24.29 -20.34,6.03 -43.31,9.04 -68.92,9.04zm14.69 -80.22c26.36,0 50.28,-5.46 71.75,-16.38 21.47,-10.92 39.73,-25.99 54.8,-45.19 15.07,-19.21 26.55,-40.49 34.46,-63.84 7.91,-23.35 11.86,-47.83 11.86,-73.44l0 -3.39 -142.36 0c-36.91,0 -66.66,4.33 -89.26,12.99 -22.6,8.66 -38.79,20.71 -48.58,36.15 -9.79,15.44 -14.69,32.95 -14.69,52.54 0,20.34 4.71,38.04 14.12,53.1 9.42,15.07 23.35,26.74 41.81,35.03 18.45,8.28 40.49,12.43 66.09,12.43z"/>
    <polygon class="fil0" points="3671.78,1048.17 3864.99,763.44 3671.78,478.72 3775.73,478.72 3929.39,711.47 3929.39,711.47 4085.31,478.72 4187,478.72 3993.79,763.44 4187,1048.17 4085.31,1048.17 3929.39,814.29 3929.39,814.29 3775.73,1048.17 "/>
    <polygon class="fil1" points="4282.82,1294.71 4420.89,984.9 4388.12,984.9 4164.41,478.72 4267.23,478.72 4452.52,913.72 4647.99,478.72 4746.3,478.72 4410.15,1232.17 4342.7,1265.3 "/>
    <polygon class="fil0" points="4784.72,1048.17 4784.72,257.27 5266.04,257.27 5266.04,335.23 4879.63,335.23 4879.63,613.17 5208.42,613.17 5208.42,690 4879.63,690 4879.63,1048.17 "/>
    <path class="fil1" d="M5323.67 1048.17l0 -477.48 94.91 0 0 477.48 -94.91 0zm0 -486.36l0 -83.08 94.91 0 0 36.47 -94.91 46.61zm47.45 -203.99c-18.83,0 -34.46,-6.21 -46.89,-18.64 -12.42,-12.42 -18.64,-28.05 -18.64,-46.88 0,-18.83 6.22,-34.08 18.64,-45.76 12.44,-11.68 28.06,-17.52 46.89,-17.52 18.08,0 33.52,5.85 46.32,17.52 12.81,11.68 19.22,26.93 19.22,45.76 0,18.83 -6.41,34.45 -19.22,46.88 -12.8,12.44 -28.24,18.64 -46.32,18.64z"/>
   </g>
   <g>
    <path class="fil2" d="M233.25 466.91c91.61,-239.81 347.29,-391.69 571.11,-339.24 108.15,25.36 189.06,93.78 233.47,184.8 31.49,64.51 44.63,140.39 36.12,220.3l173.94 -85.43c-26.4,-84.24 -69.77,-160.94 -126.12,-226.14 -117.08,-135.47 -290.16,-221.2 -483.27,-221.2 -352.62,0 -638.5,285.85 -638.5,638.49 0,352.63 285.88,638.49 638.5,638.49 243.67,0 455.43,-136.51 563.04,-337.21l0 337.21 216.65 0 0 -530.29 -150.33 0 -66.32 0 -201.99 0c-114.1,186.47 -332.52,295.04 -526.91,249.47 -223.81,-52.46 -330.99,-289.42 -239.4,-529.24z"/>
    <polygon class="fil3" points="1088.13,574.37 808.81,711.59 1040.4,711.59 1212.51,711.59 1418.19,711.59 1418.19,412.24 1199.7,519.57 "/>
   </g>
  </g>
 </g>
</svg>
