<?xml version="1.0" encoding="UTF-8"?>
<!DOCTYPE svg PUBLIC "-//W3C//DTD SVG 1.1//EN" "http://www.w3.org/Graphics/SVG/1.1/DTD/svg11.dtd">
<!-- Creator: CorelDRAW -->
<svg xmlns="http://www.w3.org/2000/svg" xml:space="preserve" width="1.4183in" height="1.27707in" version="1.1" style="shape-rendering:geometricPrecision; text-rendering:geometricPrecision; image-rendering:optimizeQuality; fill-rule:evenodd; clip-rule:evenodd"
viewBox="0 0 369.94 333.11"
 xmlns:xlink="http://www.w3.org/1999/xlink"
 xmlns:xodm="http://www.corel.com/coreldraw/odm/2003">
 <defs>
  <style type="text/css">
   <![CDATA[
    .fil1 {fill:url(#id0)}
    .fil0 {fill:url(#id1)}
   ]]>
  </style>
  <linearGradient id="id0" gradientUnits="userSpaceOnUse" x1="310.34" y1="47.01" x2="317.12" y2="411.88">
   <stop offset="0" style="stop-opacity:1; stop-color:#7E3FFF"/>
   <stop offset="1" style="stop-opacity:1; stop-color:#45B4FF"/>
  </linearGradient>
  <linearGradient id="id1" gradientUnits="userSpaceOnUse" xlink:href="#id0" x1="188.16" y1="4.49" x2="190.45" y2="335.01">
  </linearGradient>
 </defs>
 <g id="Layer_x0020_1">
  <metadata id="CorelCorpID_0Corel-Layer"/>
  <g id="_2521896119136">
   <path class="fil0" d="M60.84 121.8c23.9,-62.56 90.59,-102.18 148.98,-88.49 28.21,6.61 49.32,24.46 60.9,48.21 8.21,16.83 11.64,36.62 9.42,57.47l45.37 -22.29c-6.89,-21.97 -18.2,-41.98 -32.9,-58.99 -30.54,-35.34 -75.69,-57.7 -126.06,-57.7 -91.98,0 -166.56,74.57 -166.56,166.55 0,91.99 74.57,166.55 166.56,166.55 63.56,0 118.8,-35.61 146.87,-87.96l0 87.96 56.51 0 0 -138.33 -39.21 0 -17.3 0 -52.69 0c-29.76,48.64 -86.74,76.96 -137.45,65.08 -58.38,-13.68 -86.34,-75.5 -62.45,-138.06z"/>
   <polygon class="fil1" points="283.85,149.83 210.98,185.62 271.4,185.62 316.29,185.62 369.94,185.62 369.94,107.53 312.95,135.53 "/>
  </g>
 </g>
</svg>
